<svg width="16" height="16" viewBox="0 0 16 16" fill="none" xmlns="http://www.w3.org/2000/svg">
<path d="M13.75 8.77499L15.625 10.625L7.3 14.6C7.3 14.6 6.2 15.1 5.675 14.3C3.625 11.1 13.75 8.77499 13.75 8.77499Z" fill="#962C2C"/>
<path d="M7.1 12.275C7.1 12.275 5.5 12.825 5.8 13.9C6.1 15 7.375 14.325 7.375 14.325L15.275 10.65C15.275 10.65 14.825 9.47501 15.625 8.70001L7.1 12.275Z" fill="#D9E3E8"/>
<path d="M8.425 1.25L16 8.625L7.05 12.125L1.3 3.175L8.425 1.25Z" fill="#FFCE31"/>
<path d="M8.65 2.92499L10.1 4.47499L4.675 6.42499L3.4 4.44999L8.65 2.92499Z" fill="white"/>
<path d="M15.25 9.49999L9.975 11.65L15.175 9.27499L15.25 9.49999ZM15.175 10.15L9.55 12.475L15.075 9.89999L15.175 10.15ZM15.225 10.5L8.05 13.625L15.125 10.275L15.225 10.5Z" fill="#94989B"/>
<path d="M5.675 14.3C4.8 12.475 7.05 12.15 7.05 12.15L1.3 3.17499C1.3 3.17499 0 3.14999 0 4.49999C0 5.04999 0.25 5.47499 0.25 5.47499L5.675 14.3Z" fill="#FF8736"/>
</svg>
